<?xml version="1.0" standalone="no"?>
<!DOCTYPE svg PUBLIC "-//W3C//DTD SVG 20010904//EN"
 "http://www.w3.org/TR/2001/REC-SVG-20010904/DTD/svg10.dtd">
<svg version="1.0" xmlns="http://www.w3.org/2000/svg"
 width="128.000000pt" height="128.000000pt" viewBox="0 0 128.000000 128.000000"
 preserveAspectRatio="xMidYMid meet">
<metadata>
Created by potrace 1.15, written by Peter Selinger 2001-2017
</metadata>
<g transform="translate(0.000000,128.000000) scale(0.100000,-0.100000)"
fill="#000000" stroke="none">
<path d="M205 1269 c-3 -4 -2 -15 2 -25 4 -12 3 -15 -5 -10 -8 5 -10 2 -5 -10
5 -14 3 -15 -18 -4 -13 7 -21 9 -17 5 4 -4 -2 -15 -12 -24 -11 -9 -24 -35 -29
-59 -7 -35 -6 -44 8 -52 9 -5 13 -10 8 -10 -4 0 -24 11 -45 23 -20 13 -49 27
-65 31 l-27 6 2 -69 c2 -38 5 -66 8 -62 3 4 25 -17 49 -47 24 -30 38 -51 32
-48 -6 4 -11 3 -11 -3 0 -5 -3 -18 -6 -28 -6 -16 -5 -16 10 2 15 18 15 16 0
-25 -21 -55 -29 -65 -21 -25 l6 30 -14 -30 c-7 -16 -11 -41 -8 -55 3 -17 2
-21 -4 -12 -11 15 -33 -26 -39 -72 l-4 -29 21 28 c33 41 96 217 166 468 3 9
-1 25 -8 35 -13 15 -12 16 3 3 16 -12 20 -10 34 25 9 22 18 42 20 45 2 3 -4 6
-12 6 -8 0 -17 -4 -19 -8z"/>
<path d="M435 1243 c-9 -56 -15 -69 -23 -57 -4 6 -28 23 -55 38 -58 34 -71 27
-86 -47 -11 -51 -24 -182 -15 -141 3 12 17 32 31 45 14 13 24 20 21 14 -2 -5
-15 -32 -28 -60 -47 -96 -36 -294 22 -410 27 -53 59 -97 66 -91 2 3 -1 14 -9
23 -13 16 -12 17 4 4 10 -8 16 -20 13 -26 -2 -7 1 -18 7 -24 9 -9 7 -11 -8 -6
-11 3 -5 -2 13 -10 17 -8 32 -19 32 -23 0 -21 89 -94 131 -109 53 -19 63 -39
74 -146 5 -55 5 -57 -19 -57 -13 0 -32 -3 -41 -6 -10 -4 -15 -2 -13 6 2 7 -2
14 -9 17 -7 3 -13 -10 -15 -34 -3 -33 -8 -41 -41 -57 -36 -17 -40 -17 -55 -3
-14 15 -14 18 3 37 10 11 16 22 13 25 -3 3 -13 -4 -23 -15 -10 -11 -24 -20
-32 -20 -7 0 -13 -4 -13 -10 0 -5 6 -7 14 -4 8 3 19 -4 26 -16 8 -16 18 -21
35 -17 20 3 23 1 15 -13 -10 -18 -4 -26 30 -45 10 -6 9 -2 -3 12 -15 17 -16
26 -8 41 12 22 41 37 41 20 0 -14 41 -80 47 -75 2 3 -5 20 -16 38 -28 45 -26
75 4 95 32 21 56 12 79 -30 l18 -35 24 29 c31 36 69 46 100 25 31 -20 31 -55
-2 -94 -25 -30 -25 -31 -5 -31 14 0 25 11 35 35 18 41 52 51 36 10 -15 -39 -1
-29 16 11 8 20 13 39 10 42 -3 3 -6 0 -6 -6 0 -24 -39 -12 -52 15 -20 43 -61
52 -110 25 -39 -21 -42 -21 -54 -4 -19 24 -15 148 5 144 9 -2 12 4 9 22 -5 22
-3 23 24 14 42 -15 74 12 187 152 l20 25 -10 -37 c-5 -21 -9 -70 -7 -110 3
-66 4 -70 15 -48 12 24 13 24 8 -10 -13 -108 -14 -145 -4 -120 6 14 12 65 14
115 4 84 3 88 -11 65 -14 -24 -15 -21 -9 40 4 36 8 80 11 97 4 32 1 30 -76
-47 -44 -44 -90 -82 -102 -85 -33 -8 -164 21 -212 48 -62 34 -202 250 -149
230 13 -5 13 -3 3 16 -9 17 -9 26 1 37 14 17 39 18 39 2 0 -7 10 -24 21 -38
20 -24 20 -24 14 -2 -5 16 -2 22 9 22 9 0 19 0 23 1 4 0 9 -5 12 -12 2 -6 -1
-9 -6 -6 -5 3 -10 -5 -11 -19 -1 -17 3 -24 16 -24 13 0 14 2 3 9 -7 5 -10 14
-7 20 4 6 12 8 18 5 6 -4 9 -3 6 2 -2 5 -10 23 -17 41 -8 20 -22 33 -39 38
-14 3 -22 9 -16 13 5 4 10 16 10 27 1 11 5 36 8 55 8 41 -7 15 -20 -35 -6 -22
-11 3 -18 95 -10 121 -10 123 -17 65 -4 -33 -12 -72 -18 -87 -12 -31 -41 -38
-41 -10 0 9 -4 24 -9 31 -7 10 -8 1 -4 -25 4 -33 1 -43 -20 -62 -30 -28 -37
-21 -44 53 -10 95 26 224 79 282 l20 22 -37 -5 c-21 -2 -42 -7 -47 -10 -10 -7
-1 36 18 84 12 29 16 32 34 22 11 -6 20 -15 20 -21 0 -6 4 -8 9 -5 4 3 16 -3
26 -14 17 -19 17 -19 -14 -10 -17 5 -29 5 -26 1 12 -20 60 -19 82 1 17 15 25
17 41 9 19 -10 32 -6 32 12 0 5 -7 6 -16 3 -26 -10 -44 12 -37 45 3 16 3 29 0
29 -3 0 -9 -17 -12 -37z"/>
<path d="M722 1274 c3 -2 32 -21 66 -43 112 -73 144 -83 107 -35 -17 22 -20
54 -5 54 6 0 10 -6 10 -14 0 -8 11 -28 25 -44 14 -17 24 -36 23 -42 -2 -7 3
-15 11 -18 8 -3 11 0 7 7 -14 22 25 11 50 -14 14 -14 31 -25 39 -25 21 0 27
-18 8 -24 -10 -2 -5 -5 12 -4 17 0 37 0 47 -1 10 -1 40 -42 77 -108 80 -143
80 -143 78 -107 -1 16 -12 48 -25 72 -23 42 -39 57 -28 25 6 -17 5 -17 -8 -1
-7 10 -12 37 -11 60 1 38 5 45 33 57 18 8 32 18 32 22 0 4 -26 13 -57 20 -68
15 -223 87 -231 108 -3 7 0 22 6 32 7 10 12 21 12 24 0 3 -63 5 -141 4 -77 0
-139 -3 -137 -5z"/>
<path d="M595 997 c21 -69 27 -176 15 -257 -18 -119 -19 -139 -6 -149 8 -7 11
14 13 78 2 104 21 170 23 81 l2 -55 13 40 c8 22 14 73 14 113 1 41 5 72 11 72
6 0 10 -4 10 -9 0 -5 23 -34 51 -65 l50 -55 -43 -22 c-53 -27 -48 -21 -54 -55
-5 -29 -5 -29 11 -7 20 28 71 59 112 68 l32 6 4 -68 c3 -42 3 -36 2 17 -2 47
-10 105 -19 130 -10 30 -14 35 -11 15 5 -30 5 -30 -35 15 -22 25 -40 40 -40
35 0 -6 20 -33 45 -62 50 -57 55 -73 24 -73 -15 0 -27 16 -50 65 -16 36 -27
70 -24 75 5 9 -35 73 -41 67 -5 -4 24 -85 43 -121 15 -30 15 -30 -2 -16 -10 8
-29 32 -44 54 -14 21 -33 50 -42 63 -16 24 -17 24 -15 -21 0 -25 4 -46 9 -46
4 0 7 -30 6 -67 -1 -78 -4 -71 -39 89 -12 54 -25 100 -30 103 -4 3 -2 -14 5
-38z"/>
<path d="M945 998 c15 -24 33 -58 41 -75 8 -18 16 -33 19 -33 9 0 0 75 -10 83
-6 5 -4 7 4 5 8 -2 15 -11 16 -19 2 -7 19 -38 38 -66 42 -62 77 -151 77 -195
l0 -31 -26 39 c-28 42 -93 117 -105 122 -4 2 1 -23 11 -55 9 -32 20 -76 24
-98 l7 -40 -21 44 c-11 24 -20 50 -20 59 0 8 -2 13 -5 10 -3 -3 -8 -41 -10
-84 -5 -85 -29 -193 -47 -209 -8 -7 -9 -6 -4 2 8 14 -10 202 -23 248 -9 32
-11 30 -30 -41 -6 -22 -20 -51 -31 -64 -25 -29 -26 -38 -1 -16 11 10 25 31 31
47 7 16 16 29 20 29 12 0 20 -67 20 -165 l0 -90 19 24 c25 32 42 88 56 181
l11 75 18 -55 c10 -30 22 -59 27 -64 12 -13 12 59 0 104 -5 19 -12 53 -16 75
l-7 40 32 -40 c18 -22 38 -53 46 -68 19 -35 34 -26 34 18 0 48 -34 135 -80
203 -21 31 -37 58 -35 60 2 2 26 -8 54 -22 73 -38 63 -24 -16 21 -89 50 -87
50 -79 19 9 -37 2 -32 -28 19 -15 25 -29 45 -32 45 -3 0 7 -19 21 -42z"/>
<path d="M181 724 c-1 -11 8 -56 18 -100 34 -139 34 -144 6 -144 -28 0 -45 25
-45 66 0 51 -19 11 -36 -72 -8 -43 -19 -91 -24 -106 -4 -16 -5 -30 0 -33 10
-6 21 35 26 96 2 26 8 57 13 70 l10 24 0 -27 c1 -25 5 -28 35 -28 19 0 47 -5
62 -11 26 -9 27 -9 12 8 -8 10 -18 29 -21 41 -5 20 0 18 32 -15 20 -21 52 -50
71 -64 19 -15 32 -30 27 -35 -4 -4 -17 1 -30 12 -45 40 -61 47 -32 15 28 -32
58 -49 114 -66 21 -6 20 -4 -9 22 -21 19 -30 34 -26 42 6 9 13 8 27 -5 31 -28
22 -10 -21 42 -21 26 -37 51 -35 55 3 4 -7 14 -21 24 l-25 16 17 -28 c10 -15
30 -43 43 -62 l25 -34 -24 8 c-83 25 -145 113 -174 248 -8 34 -14 53 -15 41z"/>
<path d="M1073 589 c-15 -128 -38 -193 -104 -294 -28 -42 -49 -79 -46 -81 2
-2 25 27 51 66 34 52 52 70 69 70 17 0 19 2 7 10 -21 13 -9 21 57 36 73 17
108 18 121 1 12 -14 -5 -120 -32 -197 -13 -37 -13 -42 -1 -26 8 10 22 53 31
95 16 72 34 115 34 79 0 -9 4 -19 8 -22 4 -3 8 14 7 36 -1 27 -6 43 -16 46
-12 5 -12 3 1 -14 9 -12 4 -10 -13 5 -27 24 -39 43 -14 23 10 -9 13 0 12 41 0
44 3 52 18 49 25 -4 20 10 -11 34 l-28 22 3 -67 c2 -78 -3 -63 -12 32 -10 98
-22 82 -17 -23 4 -83 3 -90 -14 -90 -13 0 -31 20 -53 56 -37 61 -44 60 -55
-11 -4 -22 -12 -47 -17 -55 -8 -11 -9 -9 -5 10 26 104 37 176 34 222 -3 46 -5
39 -15 -53z"/>
<path d="M210 382 c0 -5 9 -13 20 -18 19 -9 18 -10 -5 -31 l-25 -21 6 24 c3
13 3 24 -1 24 -10 0 -34 -32 -35 -45 0 -5 5 -3 10 5 7 11 8 5 4 -20 -7 -35
-33 -75 -42 -65 -3 3 3 14 13 25 9 10 15 26 11 35 -5 14 -8 14 -30 -2 -13 -10
-22 -20 -20 -22 2 -2 13 4 24 14 16 15 20 15 20 3 0 -8 -9 -23 -20 -33 -21
-19 -28 -41 -8 -29 7 4 8 3 4 -5 -4 -6 -11 -9 -16 -6 -10 6 -40 -46 -40 -67 1
-7 7 2 15 20 8 17 17 32 20 32 3 0 1 -9 -5 -20 -12 -23 -11 -108 2 -116 5 -3
1 -15 -7 -27 -8 -12 -15 -26 -15 -32 0 -5 9 5 20 22 11 18 23 33 26 33 3 0 -1
-11 -10 -25 -18 -27 -20 -35 -8 -35 4 0 15 14 24 30 17 30 17 30 -10 37 -24 6
-24 7 -7 13 11 4 23 2 27 -4 5 -7 8 -3 8 9 0 11 26 45 57 77 62 63 99 81 42
21 l-34 -37 48 39 c32 25 45 41 38 48 -13 13 -43 -7 -120 -82 -64 -63 -81 -69
-81 -24 0 38 28 89 70 127 21 19 36 36 34 39 -3 3 7 14 22 26 15 12 30 19 33
15 3 -3 -5 -14 -19 -25 l-25 -20 30 14 c17 8 37 12 45 9 18 -5 -43 54 -71 68
-10 6 -19 7 -19 2z"/>
</g>
</svg>
